<mxfile host="app.diagrams.net" modified="2023-11-01T11:31:17.220Z" agent="Mozilla/5.0 (Windows NT 10.0; Win64; x64) AppleWebKit/537.36 (KHTML, like Gecko) Chrome/118.0.0.0 Safari/537.36" etag="AzWBujVn-bqzmoWW0t5r" version="22.0.8" type="device">
  <diagram id="C5RBs43oDa-KdzZeNtuy" name="Page-1">
    <mxGraphModel dx="651" dy="759" grid="1" gridSize="10" guides="1" tooltips="1" connect="1" arrows="1" fold="1" page="1" pageScale="1" pageWidth="827" pageHeight="1169" math="0" shadow="0">
      <root>
        <mxCell id="WIyWlLk6GJQsqaUBKTNV-0" />
        <mxCell id="WIyWlLk6GJQsqaUBKTNV-1" parent="WIyWlLk6GJQsqaUBKTNV-0" />
        <mxCell id="zkfFHV4jXpPFQw0GAbJ--17" value="Design" style="swimlane;fontStyle=0;align=center;verticalAlign=top;childLayout=stackLayout;horizontal=1;startSize=26;horizontalStack=0;resizeParent=1;resizeLast=0;collapsible=1;marginBottom=0;rounded=0;shadow=0;strokeWidth=1;" parent="WIyWlLk6GJQsqaUBKTNV-1" vertex="1">
          <mxGeometry x="98" y="210" width="127" height="110" as="geometry">
            <mxRectangle x="550" y="140" width="160" height="26" as="alternateBounds" />
          </mxGeometry>
        </mxCell>
        <mxCell id="zkfFHV4jXpPFQw0GAbJ--18" value="UX / UI" style="text;align=left;verticalAlign=top;spacingLeft=4;spacingRight=4;overflow=hidden;rotatable=0;points=[[0,0.5],[1,0.5]];portConstraint=eastwest;" parent="zkfFHV4jXpPFQw0GAbJ--17" vertex="1">
          <mxGeometry y="26" width="127" height="26" as="geometry" />
        </mxCell>
        <mxCell id="doPsQmuykJK-m4pFW8Eo-15" value="Programming Image" style="text;align=left;verticalAlign=top;spacingLeft=4;spacingRight=4;overflow=hidden;rotatable=0;points=[[0,0.5],[1,0.5]];portConstraint=eastwest;" vertex="1" parent="zkfFHV4jXpPFQw0GAbJ--17">
          <mxGeometry y="52" width="127" height="26" as="geometry" />
        </mxCell>
        <mxCell id="doPsQmuykJK-m4pFW8Eo-0" value="Development" style="swimlane;fontStyle=0;align=center;verticalAlign=top;childLayout=stackLayout;horizontal=1;startSize=26;horizontalStack=0;resizeParent=1;resizeLast=0;collapsible=1;marginBottom=0;rounded=0;shadow=0;strokeWidth=1;" vertex="1" parent="WIyWlLk6GJQsqaUBKTNV-1">
          <mxGeometry x="255" y="210" width="127" height="110" as="geometry">
            <mxRectangle x="550" y="140" width="160" height="26" as="alternateBounds" />
          </mxGeometry>
        </mxCell>
        <mxCell id="doPsQmuykJK-m4pFW8Eo-26" value="Game" style="text;align=left;verticalAlign=top;spacingLeft=4;spacingRight=4;overflow=hidden;rotatable=0;points=[[0,0.5],[1,0.5]];portConstraint=eastwest;" vertex="1" parent="doPsQmuykJK-m4pFW8Eo-0">
          <mxGeometry y="26" width="127" height="26" as="geometry" />
        </mxCell>
        <mxCell id="doPsQmuykJK-m4pFW8Eo-10" value="Image Configuration" style="text;align=left;verticalAlign=top;spacingLeft=4;spacingRight=4;overflow=hidden;rotatable=0;points=[[0,0.5],[1,0.5]];portConstraint=eastwest;" vertex="1" parent="doPsQmuykJK-m4pFW8Eo-0">
          <mxGeometry y="52" width="127" height="26" as="geometry" />
        </mxCell>
        <mxCell id="doPsQmuykJK-m4pFW8Eo-14" value="Integration" style="rounded=1;whiteSpace=wrap;html=1;" vertex="1" parent="WIyWlLk6GJQsqaUBKTNV-1">
          <mxGeometry x="406" y="240" width="80" height="60" as="geometry" />
        </mxCell>
        <mxCell id="doPsQmuykJK-m4pFW8Eo-17" value="Deployment" style="rounded=1;whiteSpace=wrap;html=1;" vertex="1" parent="WIyWlLk6GJQsqaUBKTNV-1">
          <mxGeometry x="506" y="240" width="80" height="60" as="geometry" />
        </mxCell>
        <mxCell id="doPsQmuykJK-m4pFW8Eo-19" value="&lt;ul&gt;&lt;li&gt;AWS&lt;/li&gt;&lt;/ul&gt;" style="text;html=1;strokeColor=none;fillColor=none;align=center;verticalAlign=middle;whiteSpace=wrap;rounded=0;" vertex="1" parent="WIyWlLk6GJQsqaUBKTNV-1">
          <mxGeometry x="486" y="300" width="60" height="30" as="geometry" />
        </mxCell>
        <mxCell id="doPsQmuykJK-m4pFW8Eo-20" value="&lt;ul&gt;&lt;li&gt;?&lt;/li&gt;&lt;/ul&gt;" style="text;html=1;strokeColor=none;fillColor=none;align=center;verticalAlign=middle;whiteSpace=wrap;rounded=0;" vertex="1" parent="WIyWlLk6GJQsqaUBKTNV-1">
          <mxGeometry x="375" y="300" width="60" height="30" as="geometry" />
        </mxCell>
        <mxCell id="doPsQmuykJK-m4pFW8Eo-21" value="&lt;ul&gt;&lt;li&gt;Up, Down, Left, Right&lt;/li&gt;&lt;/ul&gt;" style="text;html=1;strokeColor=none;fillColor=none;align=center;verticalAlign=middle;whiteSpace=wrap;rounded=0;" vertex="1" parent="WIyWlLk6GJQsqaUBKTNV-1">
          <mxGeometry x="68" y="320" width="160" height="30" as="geometry" />
        </mxCell>
        <mxCell id="doPsQmuykJK-m4pFW8Eo-22" value="&lt;ul&gt;&lt;li&gt;def, for ..&lt;/li&gt;&lt;/ul&gt;" style="text;html=1;strokeColor=none;fillColor=none;align=center;verticalAlign=middle;whiteSpace=wrap;rounded=0;" vertex="1" parent="WIyWlLk6GJQsqaUBKTNV-1">
          <mxGeometry x="60" y="340" width="110" height="30" as="geometry" />
        </mxCell>
        <mxCell id="doPsQmuykJK-m4pFW8Eo-27" value="Application Build Flow" style="text;html=1;strokeColor=none;fillColor=none;align=center;verticalAlign=middle;whiteSpace=wrap;rounded=0;" vertex="1" parent="WIyWlLk6GJQsqaUBKTNV-1">
          <mxGeometry x="20" y="510" width="190" height="30" as="geometry" />
        </mxCell>
        <mxCell id="doPsQmuykJK-m4pFW8Eo-28" value="main.py" style="rounded=1;whiteSpace=wrap;html=1;" vertex="1" parent="WIyWlLk6GJQsqaUBKTNV-1">
          <mxGeometry x="60" y="585" width="55" height="50" as="geometry" />
        </mxCell>
        <mxCell id="doPsQmuykJK-m4pFW8Eo-31" value="&lt;span style=&quot;color: rgb(0, 0, 0); font-family: Helvetica; font-size: 12px; font-style: normal; font-variant-ligatures: normal; font-variant-caps: normal; font-weight: 400; letter-spacing: normal; orphans: 2; text-indent: 0px; text-transform: none; widows: 2; word-spacing: 0px; -webkit-text-stroke-width: 0px; background-color: rgb(251, 251, 251); text-decoration-thickness: initial; text-decoration-style: initial; text-decoration-color: initial; float: none; display: inline !important;&quot;&gt;briefcase&lt;/span&gt;" style="text;whiteSpace=wrap;html=1;align=center;" vertex="1" parent="WIyWlLk6GJQsqaUBKTNV-1">
          <mxGeometry x="62.5" y="560" width="50" height="25" as="geometry" />
        </mxCell>
        <mxCell id="doPsQmuykJK-m4pFW8Eo-32" value="build" style="rounded=1;whiteSpace=wrap;html=1;" vertex="1" parent="WIyWlLk6GJQsqaUBKTNV-1">
          <mxGeometry x="134" y="585" width="55" height="50" as="geometry" />
        </mxCell>
        <mxCell id="doPsQmuykJK-m4pFW8Eo-34" value="build" style="rounded=1;whiteSpace=wrap;html=1;" vertex="1" parent="WIyWlLk6GJQsqaUBKTNV-1">
          <mxGeometry x="210" y="585" width="55" height="50" as="geometry" />
        </mxCell>
      </root>
    </mxGraphModel>
  </diagram>
</mxfile>
